<?xml version="1.0" encoding="UTF-8"?>
<svg id="Layer_1" xmlns="http://www.w3.org/2000/svg" version="1.1" viewBox="0 0 318 325">
  <!-- Generator: Adobe Illustrator 29.5.1, SVG Export Plug-In . SVG Version: 2.1.0 Build 141)  -->
  <defs>
    <style>
      .st0 {
        fill: none;
      }

      .st1 {
        stroke-width: 3px;
      }

      .st1, .st2, .st3 {
        stroke: #000;
      }

      .st2 {
        fill: #996;
      }

      .st2, .st3 {
        stroke-width: 9px;
      }

      .st3 {
        fill: #9c9;
      }
    </style>
  </defs>
  <circle class="st3" cx="159.41" cy="162.15" r="147.9" transform="translate(-67.96 160.21) rotate(-45)"/>
  <path class="st2" d="M57.29,242.97c7.25-14.54,74.21-148.25,97.65-191.86h2.42c29.01,51.6,94.03,172.19,104.18,188.44l-47.86,33.36c-7.01-13.97-66.73-58.42-110.46.29l-45.92-30.22ZM157.37,199.27c10.69,0,33.04.97,33.04.97-6.77-16.25-27.98-47.93-32.33-59.62-5.8,13.69-22.99,45.07-29.27,61.04,0,0,17.88-2.39,28.57-2.39Z"/>
  <path class="st0" d="M159.41,162.15"/>
  <path class="st1" d="M159.41,162.15"/>
</svg>